<?xml version="1.0" encoding="utf-8"?>
<!-- Generator: Adobe Illustrator 19.1.0, SVG Export Plug-In . SVG Version: 6.00 Build 0)  -->
<svg version="1.1" id="Layer_1" xmlns="http://www.w3.org/2000/svg" xmlns:xlink="http://www.w3.org/1999/xlink" x="0px" y="0px"
	 width="300px" height="94.3px" viewBox="0 0 300 94.3" style="enable-background:new 0 0 300 94.3;" xml:space="preserve">
<style type="text/css">
	.st0{fill:#0063BE;}
	.st1{fill:#737373;}
	.st2{fill:#FFFFFF;}
	.st3{fill-rule:evenodd;clip-rule:evenodd;fill:#FFFFFF;}
	.st4{fill:#FFFFFF;stroke:#FFFFFF;stroke-width:2.1003;}
	.st5{fill:#FFFFFF;stroke:#FFFFFF;stroke-width:1.5752;}
	.st6{fill:#DDDDDD;}
	.st7{fill:#231F20;}
	.st8{fill:#CCCCCC;}
	.st9{fill:#B3B3B3;}
</style>
<g>
	<path class="st3" d="M83.1,66c-6,0-15.4,1.1-15.4,1.1c-2.9,2.6-5.2,3.9-5.2,3.9c-2.4,1.3-5.6,2.4-9.3,2.4c-3.3,0-6.3-0.9-8.8-2.4
		c-5.2-3.1-8.4-8.6-8.4-12.7c0-0.8,1.1-0.6,2.5-0.5c0,0,17.8,0.5,26.6,0.5h8.8c12.5,0,23.9-3.8,23.9-22.2c0-8.6-2-32.2-16.8-32.2
		c-16.5,0-72.9,22-72.9,51.3c0,5.8,2.6,11.2,7.1,15.9l0,0c9,9.5,25.7,16,43.5,16c16.9,0,36.9-9.3,38.7-15.8h0c0,0,0-0.1,0-0.1
		c0,0,0,0,0-0.1h0c0-0.2,0.1-0.5,0.1-0.7C97.5,66.9,88.9,66,83.1,66z M43.7,41.2c1.7-1.7,18.5-16.3,28.1-16.3c2.9,0,3.1,5.4,3.1,9.2
		c0,7-0.7,8.3-8.3,8.3H45C43.3,42.4,42.4,42.5,43.7,41.2z"/>
	<path class="st3" d="M116.3,41.4c-4.5,0-9.1,0.6-11.8,6.5c-0.3,0.7-2.4,5-2.4,7.5c0,3.2,2,5.3,7.7,5.3c3.8,0,9.2-0.8,11.3-5.9
		c0.3-0.8,2.7-6.3,2.7-8.2C123.8,43,120.2,41.4,116.3,41.4z"/>
	<path class="st3" d="M175.2,19.7c-28.9,0-37.4,16.3-39.4,21.1c-4.7,11.4-10.4,23.4-10.4,29.9c0,0.1,0,0.2,0,0.3
		c0.2,14.3,17.4,14.2,25.2,14.2c14.2,0,27,0.1,37.1-14.2c1.3-1.8,2.5-3.8,3.6-6.1c2.6-4.9,10.4-22.5,10.4-30.5
		C201.9,21.5,187.2,19.7,175.2,19.7z M162.1,37.6c1.4-1.8,4.4-2.2,6.4-2.2c5.1,0,5.3,0.9,5.3,3.6c0,3.8-3.9,24.8-8.3,29.4
		c-1.7,1.7-4.5,1.7-6.3,1.7c-3.1,0-5.4,0.2-5.4-3.1C153.7,62.2,157.1,44.7,162.1,37.6z"/>
	<path class="st3" d="M277.3,21.6c-13.5,0-28.8,14.4-37.2,14.4c-5,0-5.2-5.3-5.2-6.9c0-3.6,0-3.5,0-3.5c-2.1-1.2-6.4-1.3-8.7-1.3
		c-3,0-5.2,0.5-5.8,0.6c-1.4,0.2-1.7,0.8-2,1.4c-5.5,12.5-13,33.8-16.4,44.7l0,0c-0.6,2-1.1,3.7-1.4,4.9l-1,4
		c-0.3,1.4-0.3,2.1,0.9,2.7c0.4,0.2,4.4,2.2,8.1,2.2c3,0,5.6-0.4,7.4-2.4c1.7-1.8,5.5-6.2,10.5-11.4c11.4-12,28.9-28.4,39.8-28.4
		c2.7,0,3.4,2,3.4,4.6c0,3.3-3.8,14.9-6.8,23.8l0,0c-1.3,3.9-2.5,7.3-3.1,9.2c-0.4,1.1,0.2,1.8,0.6,2.1c2,1.6,6.1,2.9,11.6,2.9
		c3.1,0,5.4-0.5,6.6-3.7c0.6-1.5,2-5.5,3.7-10.6c4-11.9,9.5-29.8,9.5-36.4C291.9,28.9,289.2,21.6,277.3,21.6z"/>
</g>
</svg>
