<?xml version="1.0" encoding="utf-8"?>
<!-- Generator: Adobe Illustrator 19.1.0, SVG Export Plug-In . SVG Version: 6.00 Build 0)  -->
<svg version="1.1" id="Layer_1" xmlns="http://www.w3.org/2000/svg" xmlns:xlink="http://www.w3.org/1999/xlink" x="0px" y="0px"
	 width="300px" height="68.3px" viewBox="0 0 300 68.3" style="enable-background:new 0 0 300 68.3;" xml:space="preserve">
<style type="text/css">
	.st0{fill:#0063BE;}
	.st1{fill:#737373;}
	.st2{fill:#FFFFFF;}
	.st3{fill-rule:evenodd;clip-rule:evenodd;fill:#FFFFFF;}
	.st4{fill:#FFFFFF;stroke:#FFFFFF;stroke-width:2.1003;}
	.st5{fill:#FFFFFF;stroke:#FFFFFF;stroke-width:1.5752;}
	.st6{fill:#DDDDDD;}
	.st7{fill:#231F20;}
	.st8{fill:#CCCCCC;}
	.st9{fill:#B3B3B3;}
</style>
<polygon class="st2" points="261.9,11.6 256.1,17.4 250.4,11.6 256.1,5.9 "/>
<rect x="252.3" y="23.2" class="st2" width="7.8" height="30"/>
<path class="st2" d="M5.6,24.3h3.5v5h0.1c1.3-3.5,5.1-5.8,9.2-5.8c8.1,0,10.5,4.3,10.5,11.1v18.6h-3.5v-18c0-5-1.6-8.7-7.3-8.7
	c-5.6,0-8.9,4.3-9,9.9v16.8H5.6V24.3z"/>
<path class="st2" d="M5.6,24.3h3.5v5h0.1c1.3-3.5,5.1-5.8,9.2-5.8c8.1,0,10.5,4.3,10.5,11.1v18.6h-3.5v-18c0-5-1.6-8.7-7.3-8.7
	c-5.6,0-8.9,4.3-9,9.9v16.9H5.6V24.3z"/>
<path class="st2" d="M53.9,37.4h-0.1c-0.4,0.8-2,1.1-2.9,1.3c-6,1.1-13.4,1-13.4,6.7c0,3.5,3.1,5.7,6.4,5.7c5.3,0,10.1-3.4,10-9.1
	V37.4z M35.2,33.2c0.3-6.8,5.1-9.7,11.6-9.7c5.1,0,10.6,1.6,10.6,9.3v15.3c0,1.3,0.7,2.1,2.1,2.1c0.4,0,0.8-0.1,1.1-0.2v3
	c-0.8,0.2-1.3,0.2-2.3,0.2c-3.6,0-4.1-2-4.1-5h-0.1c-2.5,3.7-5,5.9-10.5,5.9c-5.3,0-9.6-2.6-9.6-8.5c0-8.1,7.9-8.4,15.4-9.3
	c2.9-0.3,4.5-0.7,4.5-3.9c0-4.8-3.4-5.9-7.5-5.9c-4.3,0-7.6,2-7.7,6.7H35.2z"/>
<path class="st2" d="M71.2,24.3h5.9v3h-5.9v19.5c0,2.3,0.3,3.6,2.8,3.8c1,0,2-0.1,3-0.2v3c-1.1,0-2.1,0.1-3.1,0.1
	c-4.7,0-6.3-1.6-6.2-6.5V27.3h-5v-3h5v-8.7h3.5V24.3z"/>
<path class="st2" d="M71.2,24.3h5.9v3h-5.9v19.5c0,2.3,0.3,3.6,2.8,3.8c1,0,2-0.1,3-0.2v3c-1.1,0-2.1,0.1-3.1,0.1
	c-4.7,0-6.3-1.6-6.2-6.5V27.3h-5v-3h5v-8.7h3.5V24.3z"/>
<path class="st2" d="M83.4,24.3h3.5v28.9h-3.5V24.3z M83.4,13.2h3.5v5.7h-3.5V13.2z"/>
<rect x="83.4" y="24.3" class="st2" width="3.5" height="28.9"/>
<rect x="83.4" y="13.2" class="st2" width="3.5" height="5.7"/>
<g>
	<path class="st2" d="M95.7,38.8c0,6.2,3.3,12.3,10.1,12.3c6.7,0,10.1-6.2,10.1-12.3c0-6.2-3.3-12.3-10.1-12.3
		C99.1,26.5,95.7,32.6,95.7,38.8 M119.4,38.8c0,8.3-4.8,15.3-13.6,15.3c-8.8,0-13.6-7-13.6-15.3c0-8.3,4.8-15.3,13.6-15.3
		C114.6,23.5,119.4,30.5,119.4,38.8"/>
	<path class="st2" d="M124.6,24.3h3.5v5h0.1c1.3-3.5,5.1-5.8,9.2-5.8c8.1,0,10.5,4.3,10.5,11.1v18.6h-3.5v-18c0-5-1.6-8.7-7.3-8.7
		c-5.6,0-8.9,4.3-9,9.9v16.8h-3.5V24.3z"/>
	<path class="st2" d="M124.6,24.3h3.5v5h0.1c1.3-3.5,5.1-5.8,9.2-5.8c8.1,0,10.5,4.3,10.5,11.1v18.6h-3.5v-18c0-5-1.6-8.7-7.3-8.7
		c-5.6,0-8.9,4.3-9,9.9v16.9h-3.5V24.3z"/>
	<path class="st2" d="M172.9,37.4h-0.1c-0.4,0.8-2,1.1-3,1.3c-6,1.1-13.4,1-13.4,6.7c0,3.5,3.1,5.7,6.4,5.7c5.3,0,10.1-3.4,10-9.1
		V37.4z M154.2,33.2c0.3-6.8,5.1-9.7,11.6-9.7c5.1,0,10.6,1.6,10.6,9.3v15.3c0,1.3,0.7,2.1,2.1,2.1c0.4,0,0.8-0.1,1.1-0.2v3
		c-0.8,0.2-1.3,0.2-2.3,0.2c-3.6,0-4.1-2-4.1-5h-0.1c-2.5,3.7-5,5.9-10.5,5.9c-5.3,0-9.6-2.6-9.6-8.5c0-8.1,7.9-8.4,15.4-9.3
		c2.9-0.3,4.5-0.7,4.5-3.9c0-4.8-3.4-5.9-7.5-5.9c-4.3,0-7.6,2-7.7,6.7H154.2z"/>
</g>
<rect x="185.4" y="13.2" class="st2" width="3.5" height="40"/>
<rect x="185.4" y="13.2" class="st2" width="3.5" height="40"/>
<g>
	<path class="st2" d="M208.6,46.8c5.3,0,6.6-4.5,6.6-8.6c0-4.8-2.3-8.7-6.7-8.7c-2.9,0-6.1,2.1-6.1,9.1
		C202.5,42.3,204,46.8,208.6,46.8 M223,23.4v28.2c0,5.2-0.4,13.7-15,13.7c-6.1,0-12.6-2.6-12.9-9h8.5c0.3,1.5,0.9,3,5.5,3
		c4.2,0,6.2-2,6.2-6.8V49l-0.1-0.1c-1.3,2.3-3.2,4.5-7.9,4.5c-7.1,0-12.8-5-12.8-15.4c0-10.3,5.8-15.3,12.3-15.3
		c5.5,0,7.7,3.2,8.7,5.2h0.1v-4.4H223z"/>
	<path class="st2" d="M229.7,23.4h7.5v5.2h0.1c1.6-3,3.4-5.9,8.1-5.9c0.5,0,1,0.1,1.5,0.1v8c-0.7-0.1-1.5-0.1-2.2-0.1
		c-6.1,0-7.2,3.8-7.2,7.1v15.5h-7.8V23.4z"/>
	<path class="st2" d="M279.5,47.6c5,0,6.9-4.1,6.9-8.6c0-4.8-1.3-9.6-6.7-9.6c-5,0-6.6,4.4-6.6,9.1
		C273.1,42.1,274.5,47.6,279.5,47.6 M293.9,53.2h-7.6v-3.7h-0.1c-1.9,3.4-5.3,4.5-8.6,4.5c-8.8,0-12.5-7.8-12.5-16
		c0-10.3,5.8-15.3,12.3-15.3c5,0,7.4,2.7,8.6,4.6h0.1V13h7.8V53.2z"/>
</g>
</svg>
