<?xml version="1.0" encoding="utf-8"?>
<!-- Generator: Adobe Illustrator 19.1.0, SVG Export Plug-In . SVG Version: 6.00 Build 0)  -->
<svg version="1.1" xmlns="http://www.w3.org/2000/svg" xmlns:xlink="http://www.w3.org/1999/xlink" x="0px" y="0px"
	 viewBox="0 0 150 150" style="enable-background:new 0 0 150 150;" xml:space="preserve">
<style type="text/css">
	.st0{fill:#C1C5C6;}
	.st1{clip-path:url(#SVGID_4_);}
	.st2{fill:#596063;}
	.st3{fill:#FFFFFF;}
	.st4{fill:#1087C9;}
	.st5{fill:#F37552;}
	.st6{fill:#EF4624;}
	.st7{fill:#F7EE63;}
	.st8{opacity:0.5;fill:#2D3537;}
	.st9{fill:#5C6162;}
	.st10{fill:#33383A;}
	.st11{clip-path:url(#SVGID_10_);fill:#969BA0;}
	.st12{clip-path:url(#SVGID_10_);}
	.st13{fill:#EBEBEB;}
	.st14{opacity:0.5;fill:#FFFFFF;}
	.st15{clip-path:url(#SVGID_10_);fill:#EBEBEB;}
	.st16{opacity:0.2;}
	.st17{fill:#231F20;}
	.st18{opacity:0.3;}
	.st19{opacity:0.4;}
	.st20{opacity:0.5;}
	.st21{fill:#D95126;}
	.st22{clip-path:url(#SVGID_10_);fill:#00508C;}
	.st23{clip-path:url(#SVGID_10_);fill:#1087C9;}
	.st24{opacity:0.79;fill:#C1C5C6;}
	.st25{fill:#0087CD;}
	.st26{fill:#E2E2E2;}
	.st27{clip-path:url(#SVGID_12_);}
	.st28{fill:#9AD6F1;}
	.st29{fill:#83888A;}
	.st30{opacity:0.4;fill:#34AEE4;}
	.st31{fill:#0687C8;}
	.st32{fill:#0073B4;}
	.st33{opacity:0.3;fill:#5C6162;}
	.st34{opacity:0.13;fill:#00508C;}
	.st35{opacity:0.3;fill:#F1D780;}
	.st36{clip-path:url(#SVGID_12_);fill:#41BFB8;}
	.st37{opacity:0.2;clip-path:url(#SVGID_12_);}
	.st38{opacity:0.7;fill:#FFFFFF;stroke:#FFFFFF;stroke-miterlimit:10;}
	.st39{fill:#7ACDCD;}
	.st40{opacity:0.75;}
	.st41{fill:#5B5C5C;}
	.st42{fill:#F1F1F2;}
	.st43{fill:#E9C41D;}
	.st44{fill:#414142;}
	.st45{fill:#808285;}
	.st46{fill:#8DC63F;}
	.st47{fill:#047BC1;}
	.st48{fill:#CCEBF8;}
	.st49{clip-path:url(#SVGID_18_);}
	.st50{fill:#EAEBEC;}
	.st51{fill:#ADB2B3;}
	.st52{opacity:0.5;fill:#5C6162;}
	.st53{clip-path:url(#SVGID_18_);fill:#67C3EC;}
	.st54{opacity:0.6;clip-path:url(#SVGID_18_);fill:#C1C4C5;}
	.st55{opacity:0.88;}
	.st56{fill:#0A446B;}
	.st57{opacity:0.7;}
	.st58{opacity:0.79;fill:#00508C;}
	.st59{fill:#F4774E;}
	.st60{clip-path:url(#SVGID_22_);fill:#83888A;}
	.st61{opacity:0.7;fill:#EAEBEC;}
	.st62{clip-path:url(#SVGID_24_);}
	.st63{fill:none;stroke:#D74627;stroke-width:4;stroke-linecap:round;stroke-linejoin:round;stroke-miterlimit:10;}
	.st64{clip-path:url(#SVGID_30_);fill:#969BA0;}
	.st65{clip-path:url(#SVGID_30_);}
	.st66{fill:#67C3EC;}
	.st67{fill:#34AEE4;}
	.st68{clip-path:url(#SVGID_30_);fill:#EBEBEB;}
	.st69{fill:#33383A;stroke:#33383A;stroke-width:0.5;stroke-miterlimit:10;}
</style>
<g id="Layer_8">
</g>
<g id="Marketplace">
	<g id="Digital_Engagement_3_">
		<g>
			<defs>
				<path id="SVGID_9_" d="M335.7-344.5v132.7h4c0,41.4,33.5,74.9,74.9,74.9s74.9-33.5,75.4-74.9v-132.7H335.7z"/>
			</defs>
			<clipPath id="SVGID_2_">
				<use xlink:href="#SVGID_9_"  style="overflow:visible;"/>
			</clipPath>
			<path style="clip-path:url(#SVGID_2_);fill:#00508C;" d="M101.6,77.2H43.2c-0.9,0-1.6-0.7-1.6-1.6V44.8c0-0.9,0.7-1.6,1.6-1.6
				h58.4c0.9,0,1.6,0.7,1.6,1.6v30.8C103.2,76.5,102.5,77.2,101.6,77.2z"/>
			<path style="clip-path:url(#SVGID_2_);fill:#1087C9;" d="M141.6,77.2H43.2c-0.9,0-1.6-0.7-1.6-1.6V44.8c0-0.9,0.7-1.6,1.6-1.6
				h98.4c0.9,0,1.6,0.7,1.6,1.6v30.8C143.2,76.5,142.5,77.2,141.6,77.2z"/>
		</g>
	</g>
</g>
<g id="Misc_Items">
</g>
<g id="Energy_Efficiency_1_">
	<g id="Energy_Efficiency">
		<circle class="st26" cx="75" cy="75.4" r="75"/>
		<g>
			<defs>
				<circle id="SVGID_11_" cx="75" cy="75.4" r="75"/>
			</defs>
			<use xlink:href="#SVGID_11_"  style="overflow:visible;fill:#E2E2E2;"/>
			<clipPath id="SVGID_4_">
				<use xlink:href="#SVGID_11_"  style="overflow:visible;"/>
			</clipPath>
			<g class="st1">
				<rect id="XMLID_937_" x="67.7" y="92" class="st4" width="53.3" height="30.1"/>
				<rect id="XMLID_936_" x="74.1" y="96.6" class="st3" width="10" height="13"/>
				<rect id="XMLID_935_" x="107" y="96.6" class="st3" width="10" height="13"/>
				<rect id="XMLID_934_" x="89.6" y="102" class="st28" width="11.3" height="20.1"/>
				<polygon id="XMLID_933_" class="st29" points="120.2,73 70.3,73 64.2,92 124.5,92 				"/>
				<polygon class="st30" points="56.5,73 6.6,73 0.5,92 4,92 4,122.1 57.3,122.1 57.3,92 60.8,92 				"/>
				<polygon class="st30" points="183.6,73 133.7,73 127.6,92 131.1,92 131.1,122.1 184.4,122.1 184.4,92 188,92 				"/>
				<circle id="XMLID_932_" class="st31" cx="98.6" cy="111.5" r="0.7"/>
				<rect x="78.6" y="96.6" class="st28" width="0.8" height="13"/>
				<rect x="74.1" y="102.7" class="st28" width="10" height="0.8"/>
				<rect x="111.4" y="96.6" class="st28" width="0.8" height="13"/>
				<rect x="107" y="102.7" class="st28" width="10" height="0.8"/>
				<rect x="67.7" y="92" class="st32" width="53.3" height="1.2"/>
				<polygon class="st33" points="96.7,73 70.3,73 64.2,92 88.7,92 				"/>
				<polygon class="st34" points="86.7,92 67.7,92 67.7,122.1 73.1,122.1 				"/>
				<polygon class="st35" points="107,96.6 114.3,96.6 107,109.6 				"/>
				<polygon class="st35" points="74.1,96.6 81.4,96.6 74.1,109.6 				"/>
			</g>
			<rect x="10.8" y="122.1" style="clip-path:url(#SVGID_4_);fill:#41BFB8;" width="142.7" height="37.4"/>
			<g style="opacity:0.2;clip-path:url(#SVGID_4_);">
				<defs>
					<rect id="SVGID_13_" x="2.4" y="122.3" class="st16" width="142.7" height="37.4"/>
				</defs>
				<clipPath id="SVGID_6_">
					<use xlink:href="#SVGID_13_"  style="overflow:visible;"/>
				</clipPath>
			</g>
			<g style="opacity:0.2;clip-path:url(#SVGID_4_);">
				<defs>
					<rect id="SVGID_15_" x="-17.8" y="122.3" class="st16" width="142.7" height="37.4"/>
				</defs>
				<clipPath id="SVGID_8_">
					<use xlink:href="#SVGID_15_"  style="overflow:visible;"/>
				</clipPath>
			</g>
			<g class="st1">
				<path class="st5" d="M107.9,17.3c2,4.1,7,5.8,11.1,3.8c1.9-0.9,3.3-2.5,4-4.2c-4.1-3.7-8.8-6.7-13.8-8.8
					C107,10.6,106.3,14.2,107.9,17.3z"/>
				<path class="st5" d="M102.2,20.1c-0.1-0.2,0-0.3,0.1-0.4l2.6-1.2c0.2-0.1,0.3,0,0.4,0.1s0,0.3-0.1,0.4l-2.6,1.2
					C102.5,20.3,102.3,20.3,102.2,20.1z"/>
				<path class="st5" d="M121.6,26.8l-1.2-2.6c-0.1-0.2,0-0.3,0.1-0.4s0.3,0,0.4,0.1l1.2,2.6c0.1,0.2,0,0.3-0.1,0.4
					S121.7,27,121.6,26.8z"/>
				<path class="st5" d="M110.4,27.5c0-0.1,0-0.2,0-0.2l1-2.8c0.1-0.2,0.2-0.3,0.4-0.2c0.2,0.1,0.3,0.2,0.2,0.4l-1,2.8
					c-0.1,0.2-0.2,0.3-0.4,0.2C110.5,27.6,110.5,27.5,110.4,27.5z"/>
				<path class="st5" d="M101.3,9c0-0.1,0-0.2,0-0.2c0.1-0.2,0.2-0.3,0.4-0.2l3,1c0.2,0.1,0.3,0.2,0.2,0.4c-0.1,0.2-0.2,0.3-0.4,0.2
					l-3-1C101.4,9.2,101.3,9.1,101.3,9z"/>
				<path class="st5" d="M100.7,14.6c0,0,0-0.1,0-0.1c0-0.2,0.1-0.3,0.3-0.3l2.9-0.2c0.2,0,0.3,0.1,0.3,0.3c0,0.2-0.1,0.3-0.3,0.3
					l-2.9,0.2C100.9,14.7,100.8,14.7,100.7,14.6z"/>
				<path class="st5" d="M115.9,28.2c0,0,0-0.1,0-0.1l-0.2-2.9c0-0.2,0.1-0.3,0.3-0.3c0.2,0,0.3,0.1,0.3,0.3l0.2,2.9
					c0,0.2-0.1,0.3-0.3,0.3C116.1,28.4,116,28.4,115.9,28.2z"/>
				<path class="st5" d="M105.5,24.6c-0.1-0.1,0-0.3,0-0.3l2-2.2c0.1-0.1,0.3-0.1,0.4,0c0.1,0.1,0.1,0.3,0,0.4l-2,2.2
					C105.9,24.8,105.7,24.8,105.5,24.6C105.5,24.6,105.5,24.6,105.5,24.6z"/>
				<path class="st5" d="M123.8,21.5c-0.1-0.1,0-0.3,0-0.3c0.1-0.1,0.3-0.1,0.4,0l2.2,2c0.1,0.1,0.1,0.3,0,0.4
					c-0.1,0.1-0.3,0.1-0.4,0L123.8,21.5C123.8,21.6,123.8,21.5,123.8,21.5z"/>
			</g>
		</g>
		<path class="st38" d="M137.8,45.8c-0.6,0-1.1,0.1-1.6,0.3c-1.1-1.9-3.1-3.2-5.4-3.2c-2.9,0-5.4,2.1-6,4.8c-0.1,0-0.1,0-0.2,0
			c-1.9,0-3.4,1.5-3.4,3.4c0,1.9,1.5,3.4,3.4,3.4c0.8,0,1.5-0.3,2.1-0.8c1.1,1,2.5,1.6,4.1,1.6c1.4,0,2.7-0.5,3.8-1.3
			c0.9,0.8,2,1.3,3.3,1.3c2.6,0,4.8-2.1,4.8-4.8C142.6,48,140.4,45.8,137.8,45.8z"/>
		<path class="st38" d="M106,30.3c-0.6,0-1.2,0.1-1.8,0.3c-1.2-2.1-3.3-3.5-5.9-3.5c-3.2,0-5.9,2.2-6.6,5.2c-0.1,0-0.1,0-0.2,0
			c-2.1,0-3.7,1.7-3.7,3.7c0,2.1,1.7,3.7,3.7,3.7c0.9,0,1.7-0.3,2.3-0.8c1.2,1.1,2.7,1.7,4.5,1.7c1.6,0,3-0.5,4.1-1.4
			c0.9,0.9,2.2,1.4,3.6,1.4c2.9,0,5.2-2.3,5.2-5.2C111.1,32.6,108.8,30.3,106,30.3z"/>
		<path class="st39" d="M112.8,67.2v-2.5l-2.2,2.5l-0.8,0.1c-0.1,0-0.7-1.2-0.7-1.6c0-1.1-1.1-0.8-1.1,0s-0.1,1.6-0.1,1.6
			c0,1.2,0.9,2.2,2.1,2.3v0.5h-1.8v-0.4l-0.6,0.7l0.6,0.6v-0.4h1.8v0.4c-0.1,0-0.2,0.1-0.2,0.2V73h0.6v-1.9c0-0.1,0-0.1-0.1-0.2
			v-0.4h2v-0.4h-2v-0.5C111.6,69.6,112.8,68.5,112.8,67.2z"/>
		<g>
			<g>
				<g class="st40">
					<polygon class="st41" points="79.4,52.1 76.7,69.6 63.4,52.1 11.4,52.1 11.4,9 94.4,9 94.4,52.1 					"/>
				</g>
				<g>
					<polygon class="st42" points="77.4,50.1 74.7,67.6 61.4,50.1 9.4,50.1 9.4,7 92.4,7 92.4,50.1 					"/>
				</g>
			</g>
			<g>
				<path class="st43" d="M29.4,15C22,15,16,21,16,28.4c0,7.4,6,13.4,13.4,13.4c7.4,0,13.4-6,13.4-13.4C42.9,21,36.9,15,29.4,15z"/>
				<g>
					<g>
						<g>
							<path class="st44" d="M33.8,22.7c1.2,0,2.2,1,2.2,2.2c0,1.2-1,2.2-2.2,2.2c-1.2,0-2.2-1-2.2-2.2
								C31.5,23.7,32.5,22.7,33.8,22.7z"/>
						</g>
						<g>
							<path class="st44" d="M25.1,22.7c1.2,0,2.2,1,2.2,2.2c0,1.2-1,2.2-2.2,2.2c-1.2,0-2.2-1-2.2-2.2
								C22.9,23.7,23.9,22.7,25.1,22.7z"/>
						</g>
						<g>
							<path class="st44" d="M37.6,31.2c-1.2,3.4-4.5,5.7-8.1,5.7c-3.6,0-6.9-2.3-8.1-5.7c-0.1-0.2,0-0.5,0.2-0.7
								c0.2-0.2,0.5-0.3,0.8-0.2c2.1,0.3,4.6,0.5,7.2,0.5c2.5,0,5-0.2,7.2-0.5c0.3,0,0.6,0,0.8,0.2C37.6,30.7,37.6,31,37.6,31.2z"/>
						</g>
					</g>
				</g>
			</g>
			<g>
				<rect id="XMLID_18_" x="48.9" y="25" class="st45" width="33.1" height="6.9"/>
				<rect id="XMLID_17_" x="48.9" y="15.5" class="st46" width="25.8" height="6.9"/>
				<rect id="XMLID_16_" x="48.9" y="34.4" class="st47" width="35.7" height="6.9"/>
			</g>
		</g>
	</g>
</g>
<g id="Bill_Advisor">
</g>
<g id="Demand_Response_1_">
</g>
<g id="Digital_Engagement_2_">
	<g id="Digital_Engagement_1_">
		<g>
			<defs>
				<path id="SVGID_29_" d="M-343-344.5v132.7h4c0,41.4,33.5,74.9,74.9,74.9s74.9-33.5,74.9-74.9v-132.7H-343z"/>
			</defs>
			<clipPath id="SVGID_10_">
				<use xlink:href="#SVGID_29_"  style="overflow:visible;"/>
			</clipPath>
			<rect x="10.9" y="31.1" class="st15" width="128.3" height="124"/>
			<g class="st12">
				<g class="st16">
					<g>
						<path class="st17" d="M75.1,92.1l-9.9-36.8c3.2-0.9,6.5-1.3,9.9-1.3V92.1z"/>
					</g>
				</g>
				<g class="st18">
					<g>
						<path class="st17" d="M75.1,92.1L41.5,74.2c5.1-9.7,13.2-16.1,23.8-18.9L75.1,92.1z"/>
					</g>
				</g>
				<g class="st19">
					<g>
						<path class="st17" d="M75.1,92.1l-27.4,26.5C36,106.5,33.6,89.1,41.5,74.2L75.1,92.1z"/>
					</g>
				</g>
				<g class="st20">
					<g>
						<path class="st17" d="M75.1,92.1l29.6,24c-13.2,16.4-37.2,18.9-53.6,5.6c-1.3-1.1-2.3-1.9-3.4-3.1L75.1,92.1z"/>
					</g>
				</g>
				<g>
					<g>
						<path class="st21" d="M75.1,92.1V54c21,0,38.1,17.1,38.1,38.1c0,9.3-2.7,16.8-8.5,24L75.1,92.1z"/>
					</g>
				</g>
			</g>
			<rect x="10.9" y="31.1" class="st15" width="128.3" height="124"/>
		</g>
	</g>
</g>
</svg>
